# xmcd CD database file
#
# Track frame offsets:
#	150
#	20680
#	40105
#
# Disc length: 932 seconds
#
# Revision: 0
# Processed by: cddbd v1.5.1PL2 Copyright (c) Steve Scherf et al.
# Submitted via: CDex 1.51
#
DISCID=1c03a203
DTITLE=TRICERATOPS - トランスフォーマー
DYEAR=2006
DGENRE=JPop
TTITLE0=トランスフォーマー
TTITLE1=WARP
TTITLE2=ロケットに乗って(Live)
EXTD=YEAR: 2006
EXTT0=
EXTT1=
EXTT2=
PLAYORDER=
